<?xml version="1.0" encoding="UTF-8"?>
<svg xmlns="http://www.w3.org/2000/svg" viewBox="0 0 900 600" width="900" height="600">
  <defs>
    <style>
      .title { font-family: system-ui, -apple-system, sans-serif; font-size: 24px; font-weight: 600; }
      .section { font-family: system-ui, -apple-system, sans-serif; font-size: 14px; font-weight: 500; }
      .caption { font-family: system-ui, -apple-system, sans-serif; font-size: 11px; }
      .wordmark { font-family: system-ui, -apple-system, sans-serif; font-weight: 500; letter-spacing: 0.02em; }
    </style>
  </defs>
  
  <!-- Light background section -->
  <rect width="450" height="600" fill="#F9F8F6"/>
  
  <!-- Dark background section -->
  <rect x="450" width="450" height="600" fill="#0A0910"/>
  
  <!-- Title -->
  <text x="225" y="40" text-anchor="middle" class="title" fill="#1E3A5F">Meridian — Globe Logo System</text>
  <text x="675" y="40" text-anchor="middle" class="title" fill="#E0DDD6">Meridian — Globe Logo System</text>
  
  <!-- Section: Primary Logomark -->
  <text x="40" y="80" class="section" fill="#666">Primary Logomark</text>
  <text x="490" y="80" class="section" fill="#888">Primary Logomark</text>
  
  <!-- Light side sizes -->
  <g transform="translate(60, 100)">
    <!-- 80px version -->
    <svg width="80" height="80" viewBox="0 0 40 40">
      <circle cx="20" cy="20" r="15" fill="none" stroke="#1E3A5F" stroke-width="2.5"/>
      <path d="M20 5 Q30 20 20 35" fill="none" stroke="#1E3A5F" stroke-width="2.5" stroke-linecap="round"/>
    </svg>
    <text x="40" y="95" text-anchor="middle" class="caption" fill="#999">80px</text>
  </g>
  
  <g transform="translate(160, 120)">
    <!-- 40px version -->
    <svg width="40" height="40" viewBox="0 0 40 40">
      <circle cx="20" cy="20" r="15" fill="none" stroke="#1E3A5F" stroke-width="2.5"/>
      <path d="M20 5 Q30 20 20 35" fill="none" stroke="#1E3A5F" stroke-width="2.5" stroke-linecap="round"/>
    </svg>
    <text x="20" y="55" text-anchor="middle" class="caption" fill="#999">40px</text>
  </g>
  
  <g transform="translate(230, 132)">
    <!-- 32px version -->
    <svg width="32" height="32" viewBox="0 0 32 32">
      <circle cx="16" cy="16" r="12" fill="none" stroke="#1E3A5F" stroke-width="2"/>
      <path d="M16 4 Q24 16 16 28" fill="none" stroke="#1E3A5F" stroke-width="2" stroke-linecap="round"/>
    </svg>
    <text x="16" y="47" text-anchor="middle" class="caption" fill="#999">32px</text>
  </g>
  
  <g transform="translate(290, 140)">
    <!-- 16px version -->
    <svg width="16" height="16" viewBox="0 0 16 16">
      <circle cx="8" cy="8" r="6" fill="none" stroke="#1E3A5F" stroke-width="1.5"/>
      <path d="M8 2 Q11.5 8 8 14" fill="none" stroke="#1E3A5F" stroke-width="1.5" stroke-linecap="round"/>
    </svg>
    <text x="8" y="31" text-anchor="middle" class="caption" fill="#999">16px</text>
  </g>
  
  <!-- Dark side sizes -->
  <g transform="translate(510, 100)">
    <svg width="80" height="80" viewBox="0 0 40 40">
      <circle cx="20" cy="20" r="15" fill="none" stroke="#FFFFFF" stroke-width="2.5"/>
      <path d="M20 5 Q30 20 20 35" fill="none" stroke="#FFFFFF" stroke-width="2.5" stroke-linecap="round"/>
    </svg>
    <text x="40" y="95" text-anchor="middle" class="caption" fill="#666">80px</text>
  </g>
  
  <g transform="translate(610, 120)">
    <svg width="40" height="40" viewBox="0 0 40 40">
      <circle cx="20" cy="20" r="15" fill="none" stroke="#FFFFFF" stroke-width="2.5"/>
      <path d="M20 5 Q30 20 20 35" fill="none" stroke="#FFFFFF" stroke-width="2.5" stroke-linecap="round"/>
    </svg>
    <text x="20" y="55" text-anchor="middle" class="caption" fill="#666">40px</text>
  </g>
  
  <g transform="translate(680, 132)">
    <svg width="32" height="32" viewBox="0 0 32 32">
      <circle cx="16" cy="16" r="12" fill="none" stroke="#FFFFFF" stroke-width="2"/>
      <path d="M16 4 Q24 16 16 28" fill="none" stroke="#FFFFFF" stroke-width="2" stroke-linecap="round"/>
    </svg>
    <text x="16" y="47" text-anchor="middle" class="caption" fill="#666">32px</text>
  </g>
  
  <g transform="translate(740, 140)">
    <svg width="16" height="16" viewBox="0 0 16 16">
      <circle cx="8" cy="8" r="6" fill="none" stroke="#FFFFFF" stroke-width="1.5"/>
      <path d="M8 2 Q11.5 8 8 14" fill="none" stroke="#FFFFFF" stroke-width="1.5" stroke-linecap="round"/>
    </svg>
    <text x="8" y="31" text-anchor="middle" class="caption" fill="#666">16px</text>
  </g>
  
  <!-- Section: Horizontal Wordmark -->
  <text x="40" y="230" class="section" fill="#666">Horizontal Wordmark</text>
  <text x="490" y="230" class="section" fill="#888">Horizontal Wordmark</text>
  
  <g transform="translate(60, 250)">
    <svg width="200" height="40" viewBox="0 0 200 40">
      <circle cx="20" cy="20" r="15" fill="none" stroke="#1E3A5F" stroke-width="2.5"/>
      <path d="M20 5 Q30 20 20 35" fill="none" stroke="#1E3A5F" stroke-width="2.5" stroke-linecap="round"/>
      <text x="48" y="26" class="wordmark" font-size="20" fill="#1E3A5F">Meridian</text>
    </svg>
  </g>
  
  <g transform="translate(510, 250)">
    <svg width="200" height="40" viewBox="0 0 200 40">
      <circle cx="20" cy="20" r="15" fill="none" stroke="#FFFFFF" stroke-width="2.5"/>
      <path d="M20 5 Q30 20 20 35" fill="none" stroke="#FFFFFF" stroke-width="2.5" stroke-linecap="round"/>
      <text x="48" y="26" class="wordmark" font-size="20" fill="#E0DDD6">Meridian</text>
    </svg>
  </g>
  
  <!-- Section: Stacked Wordmark -->
  <text x="40" y="340" class="section" fill="#666">Stacked Wordmark</text>
  <text x="490" y="340" class="section" fill="#888">Stacked Wordmark</text>
  
  <g transform="translate(100, 360)">
    <svg width="120" height="90" viewBox="0 0 120 90">
      <g transform="translate(30, 0)">
        <circle cx="30" cy="30" r="24" fill="none" stroke="#1E3A5F" stroke-width="3"/>
        <path d="M30 6 Q46 30 30 54" fill="none" stroke="#1E3A5F" stroke-width="3" stroke-linecap="round"/>
      </g>
      <text x="60" y="80" text-anchor="middle" class="wordmark" font-size="18" fill="#1E3A5F">Meridian</text>
    </svg>
  </g>
  
  <g transform="translate(550, 360)">
    <svg width="120" height="90" viewBox="0 0 120 90">
      <g transform="translate(30, 0)">
        <circle cx="30" cy="30" r="24" fill="none" stroke="#FFFFFF" stroke-width="3"/>
        <path d="M30 6 Q46 30 30 54" fill="none" stroke="#FFFFFF" stroke-width="3" stroke-linecap="round"/>
      </g>
      <text x="60" y="80" text-anchor="middle" class="wordmark" font-size="18" fill="#E0DDD6">Meridian</text>
    </svg>
  </g>
  
  <!-- Section: Color Variants -->
  <text x="40" y="490" class="section" fill="#666">Single-Color Variants</text>
  <text x="490" y="490" class="section" fill="#888">Single-Color Variants</text>
  
  <!-- Light side swatches -->
  <g transform="translate(60, 510)">
    <rect width="55" height="55" fill="#FFFFFF" stroke="#E0DDD6"/>
    <svg x="7.5" y="7.5" width="40" height="40" viewBox="0 0 40 40">
      <circle cx="20" cy="20" r="15" fill="none" stroke="#1E3A5F" stroke-width="2.5"/>
      <path d="M20 5 Q30 20 20 35" fill="none" stroke="#1E3A5F" stroke-width="2.5" stroke-linecap="round"/>
    </svg>
    <text x="27.5" y="70" text-anchor="middle" class="caption" fill="#999">Navy</text>
  </g>
  
  <g transform="translate(130, 510)">
    <rect width="55" height="55" fill="#FFFFFF" stroke="#E0DDD6"/>
    <svg x="7.5" y="7.5" width="40" height="40" viewBox="0 0 40 40">
      <circle cx="20" cy="20" r="15" fill="none" stroke="#2C2825" stroke-width="2.5"/>
      <path d="M20 5 Q30 20 20 35" fill="none" stroke="#2C2825" stroke-width="2.5" stroke-linecap="round"/>
    </svg>
    <text x="27.5" y="70" text-anchor="middle" class="caption" fill="#999">Black</text>
  </g>
  
  <g transform="translate(200, 510)">
    <rect width="55" height="55" fill="#1E3A5F"/>
    <svg x="7.5" y="7.5" width="40" height="40" viewBox="0 0 40 40">
      <circle cx="20" cy="20" r="15" fill="none" stroke="#FFFFFF" stroke-width="2.5"/>
      <path d="M20 5 Q30 20 20 35" fill="none" stroke="#FFFFFF" stroke-width="2.5" stroke-linecap="round"/>
    </svg>
    <text x="27.5" y="70" text-anchor="middle" class="caption" fill="#999">White</text>
  </g>
  
  <!-- Dark side swatches -->
  <g transform="translate(510, 510)">
    <rect width="55" height="55" fill="#141220" stroke="#333"/>
    <svg x="7.5" y="7.5" width="40" height="40" viewBox="0 0 40 40">
      <circle cx="20" cy="20" r="15" fill="none" stroke="#FFFFFF" stroke-width="2.5"/>
      <path d="M20 5 Q30 20 20 35" fill="none" stroke="#FFFFFF" stroke-width="2.5" stroke-linecap="round"/>
    </svg>
    <text x="27.5" y="70" text-anchor="middle" class="caption" fill="#666">White</text>
  </g>
  
  <g transform="translate(580, 510)">
    <rect width="55" height="55" fill="#141220" stroke="#333"/>
    <svg x="7.5" y="7.5" width="40" height="40" viewBox="0 0 40 40">
      <circle cx="20" cy="20" r="15" fill="none" stroke="#E0DDD6" stroke-width="2.5"/>
      <path d="M20 5 Q30 20 20 35" fill="none" stroke="#E0DDD6" stroke-width="2.5" stroke-linecap="round"/>
    </svg>
    <text x="27.5" y="70" text-anchor="middle" class="caption" fill="#666">Warm</text>
  </g>
  
  <g transform="translate(650, 510)">
    <rect width="55" height="55" fill="#141220" stroke="#333"/>
    <svg x="7.5" y="7.5" width="40" height="40" viewBox="0 0 40 40">
      <circle cx="20" cy="20" r="15" fill="none" stroke="#B8A07E" stroke-width="2.5"/>
      <path d="M20 5 Q30 20 20 35" fill="none" stroke="#B8A07E" stroke-width="2.5" stroke-linecap="round"/>
    </svg>
    <text x="27.5" y="70" text-anchor="middle" class="caption" fill="#666">Gold</text>
  </g>
  
  <!-- Footer -->
  <text x="225" y="595" text-anchor="middle" class="caption" fill="#999">Ivory Theme (#F9F8F6)</text>
  <text x="675" y="595" text-anchor="middle" class="caption" fill="#666">Velvet Theme (#0A0910)</text>
  
</svg>
